<svg viewBox="0 0 440.22 410.8" xmlns="http://www.w3.org/2000/svg"><path d="m242.85 126.48a70.9 70.9 0 1 1 141.8 0h51.07a122 122 0 1 0 -243.95 0" fill="none" stroke="#fff" stroke-miterlimit="10" stroke-width="9"/><path d="m242.85 284a70.9 70.9 0 1 0 141.8 0h51.07a122 122 0 1 1 -243.95 0" fill="none" stroke="#fff" stroke-miterlimit="10" stroke-width="9"/><g fill="#fff"><path d="m135.15 15.31a56 56 0 1 0 -26.89 105.21 55.39 55.39 0 0 0 26.89-6.89z"/><path d="m317.7 401.49h-5.37c-11.62-.2-17-7.41-18.15-17.43v-284.81s-.64-39.62-32.57-67.79c-36.04-31.8-74.67-31.46-74.67-31.46h-23.66a5 5 0 0 0 -5 5v.51a5 5 0 0 0 5 5h5.51c11.61.2 17 6.23 18.15 16.25v268.64a116.05 116.05 0 0 0 106.92 115.38h.32l23.61-.37a4.73 4.73 0 0 0 5-4.62v-.51c.04-2.74-2.33-3.79-5.09-3.79z"/><path d="m106.77 223.75c1.13-9.93 6.48-15.9 18-16.1h5.46a4.94 4.94 0 0 0 4.94-4.94v-.51a4.94 4.94 0 0 0 -4.94-4.94h-23.46a106.77 106.77 0 0 0 0 213.54h23.44a4.94 4.94 0 0 0 4.94-4.94v-.51a4.94 4.94 0 0 0 -4.94-4.94h-5.46c-11.5-.2-16.85-6.17-18-16.1v-160.56z"/></g></svg>