<?xml version="1.0" standalone="no"?>
<!DOCTYPE svg PUBLIC "-//W3C//DTD SVG 20010904//EN"
 "http://www.w3.org/TR/2001/REC-SVG-20010904/DTD/svg10.dtd">
<svg version="1.0" xmlns="http://www.w3.org/2000/svg"
 width="550.000000pt" height="550.000000pt" viewBox="0 0 550.000000 550.000000"
 preserveAspectRatio="xMidYMid meet">
<metadata>
Created by potrace 1.11, written by Peter Selinger 2001-2013
</metadata>
<g transform="translate(0.000000,550.000000) scale(0.100000,-0.100000)"
fill="#000000" stroke="none">
<path d="M2297 4353 c-4 -3 -7 -19 -7 -34 0 -35 24 -49 84 -49 55 0 90 -15
113 -49 17 -24 18 -99 23 -1176 l5 -1150 23 -74 c104 -338 324 -558 653 -651
199 -57 513 -28 724 65 210 93 409 298 500 514 48 114 67 196 80 354 l6 67
-241 0 -240 0 0 -53 c0 -223 -182 -441 -407 -488 -58 -11 -211 -8 -245 6 -17
7 -18 64 -18 1009 0 988 0 1004 -21 1082 -36 134 -38 121 22 138 179 53 365
11 502 -114 100 -91 154 -202 165 -335 l7 -80 229 -3 c126 -1 233 1 238 6 14
14 -11 216 -38 308 -174 603 -870 893 -1421 594 l-57 -30 -78 41 c-158 82
-273 109 -462 109 -73 0 -136 -3 -139 -7z m1330 -74 c295 -40 554 -223 693
-489 45 -88 87 -223 96 -315 l7 -65 -167 0 -166 0 0 28 c-1 96 -69 240 -162
337 -114 121 -264 185 -428 184 -65 0 -171 -21 -221 -43 -11 -5 -28 12 -63 64
-27 39 -75 95 -107 124 -33 29 -59 56 -59 60 0 11 115 61 195 85 129 39 249
49 382 30z m793 -2208 c0 -58 -32 -197 -65 -277 -132 -329 -445 -553 -795
-570 -94 -5 -108 -3 -137 15 -58 36 -67 61 -71 196 l-4 122 118 -4 c140 -6
210 8 319 65 149 78 273 248 298 411 l11 71 163 0 163 0 0 -29z"/>
<path d="M1827 4289 c-116 -17 -244 -104 -309 -209 -59 -96 -74 -245 -38 -363
40 -128 159 -245 289 -284 83 -25 201 -22 276 8 l60 24 3 387 2 387 -27 15
c-65 33 -171 48 -256 35z"/>
<path d="M1737 2804 c-179 -32 -331 -117 -464 -258 -66 -70 -93 -107 -133
-189 -72 -147 -85 -204 -85 -377 0 -173 13 -230 85 -377 115 -233 344 -402
605 -448 121 -21 328 -20 349 1 39 38 8 74 -64 74 -54 0 -101 23 -123 59 -16
27 -17 85 -17 691 0 733 -2 708 65 736 19 8 53 14 75 14 72 0 103 36 64 74
-20 21 -243 21 -357 0z"/>
</g>
</svg>
