<svg height="550pt" preserveAspectRatio="xMidYMid meet" viewBox="0 0 550 550" width="550pt" xmlns="http://www.w3.org/2000/svg"><g transform="matrix(.1 0 0 -.1 0 550)"><path d="m2297 4353c-4-3-7-19-7-34 0-35 24-49 84-49 55 0 90-15 113-49 17-24 18-99 23-1176l5-1150 23-74c104-338 324-558 653-651 199-57 513-28 724 65 210 93 409 298 500 514 48 114 67 196 80 354l6 67h-241-240v-53c0-223-182-441-407-488-58-11-211-8-245 6-17 7-18 64-18 1009 0 988 0 1004-21 1082-36 134-38 121 22 138 179 53 365 11 502-114 100-91 154-202 165-335l7-80 229-3c126-1 233 1 238 6 14 14-11 216-38 308-174 603-870 893-1421 594l-57-30-78 41c-158 82-273 109-462 109-73 0-136-3-139-7zm1330-74c295-40 554-223 693-489 45-88 87-223 96-315l7-65h-167-166v28c-1 96-69 240-162 337-114 121-264 185-428 184-65 0-171-21-221-43-11-5-28 12-63 64-27 39-75 95-107 124-33 29-59 56-59 60 0 11 115 61 195 85 129 39 249 49 382 30zm793-2208c0-58-32-197-65-277-132-329-445-553-795-570-94-5-108-3-137 15-58 36-67 61-71 196l-4 122 118-4c140-6 210 8 319 65 149 78 273 248 298 411l11 71h163 163z"/><path d="m1827 4289c-116-17-244-104-309-209-59-96-74-245-38-363 40-128 159-245 289-284 83-25 201-22 276 8l60 24 3 387 2 387-27 15c-65 33-171 48-256 35z"/><path d="m1737 2804c-179-32-331-117-464-258-66-70-93-107-133-189-72-147-85-204-85-377s13-230 85-377c115-233 344-402 605-448 121-21 328-20 349 1 39 38 8 74-64 74-54 0-101 23-123 59-16 27-17 85-17 691 0 733-2 708 65 736 19 8 53 14 75 14 72 0 103 36 64 74-20 21-243 21-357 0z"/></g></svg>